<svg width="22" height="22" viewBox="0 0 22 22" fill="none" xmlns="http://www.w3.org/2000/svg">
<g id="bx:bxl-vk">
<path id="Vector" d="M19.7807 6.28376C19.9091 5.85751 19.7807 5.54492 19.1739 5.54492H17.1636C16.6521 5.54492 16.4184 5.81534 16.2901 6.11234C16.2901 6.11234 15.268 8.60476 13.8196 10.2208C13.3521 10.6911 13.1386 10.8396 12.8837 10.8396C12.7563 10.8396 12.5711 10.6911 12.5711 10.2648V6.28376C12.5711 5.77226 12.4236 5.54492 11.9973 5.54492H8.83848C8.51948 5.54492 8.32698 5.78142 8.32698 6.00692C8.32698 6.49092 9.05115 6.60276 9.1254 7.96676V10.9258C9.1254 11.5738 9.00898 11.6921 8.75231 11.6921C8.07123 11.6921 6.4139 9.19051 5.43031 6.32684C5.23873 5.77042 5.04531 5.54584 4.53198 5.54584H2.52265C1.9479 5.54584 1.83331 5.81626 1.83331 6.11326C1.83331 6.64676 2.5144 9.28676 5.0059 12.7783C6.6669 15.1626 9.00531 16.4551 11.1356 16.4551C12.4126 16.4551 12.5702 16.1682 12.5702 15.6732V13.871C12.5702 13.2972 12.6921 13.1817 13.0964 13.1817C13.3934 13.1817 13.9049 13.332 15.0975 14.4806C16.4596 15.8428 16.6851 16.4542 17.4506 16.4542H19.4599C20.0337 16.4542 20.3206 16.1673 20.1556 15.6008C19.9751 15.037 19.3242 14.2166 18.4607 13.2458C17.9914 12.6922 17.2901 12.0963 17.0766 11.7984C16.7786 11.4143 16.8648 11.2448 17.0766 10.9038C17.0775 10.9047 19.5259 7.45617 19.7807 6.28376Z" fill="#1F2432"/>
</g>
</svg>
