<svg width="22" height="22" viewBox="0 0 22 22" fill="none" xmlns="http://www.w3.org/2000/svg">
<path d="M10.9978 6.76707C8.65531 6.76707 6.76481 8.6576 6.76481 11.0001C6.76481 13.3426 8.65531 15.2332 10.9978 15.2332C13.3403 15.2332 15.2308 13.3426 15.2308 11.0001C15.2308 8.6576 13.3403 6.76707 10.9978 6.76707ZM10.9978 13.7513C9.48291 13.7513 8.24666 12.515 8.24666 11.0001C8.24666 9.48522 9.48291 8.24895 10.9978 8.24895C12.5127 8.24895 13.7489 9.48522 13.7489 11.0001C13.7489 12.515 12.5127 13.7513 10.9978 13.7513ZM15.4041 5.60717C14.8572 5.60717 14.4155 6.04884 14.4155 6.59577C14.4155 7.1427 14.8572 7.58438 15.4041 7.58438C15.951 7.58438 16.3927 7.14477 16.3927 6.59577C16.3929 6.4659 16.3674 6.33727 16.3178 6.21726C16.2682 6.09724 16.1953 5.98819 16.1035 5.89636C16.0117 5.80453 15.9026 5.73171 15.7826 5.68209C15.6626 5.63246 15.534 5.607 15.4041 5.60717ZM19.2491 11.0001C19.2491 9.86085 19.2594 8.7319 19.1954 7.5947C19.1314 6.2738 18.8301 5.10151 17.8642 4.13561C16.8963 3.16764 15.7261 2.86838 14.4052 2.8044C13.266 2.74042 12.137 2.75074 10.9998 2.75074C9.8606 2.75074 8.73167 2.74042 7.59448 2.8044C6.27362 2.86838 5.10135 3.16971 4.13546 4.13561C3.16751 5.10358 2.86825 6.2738 2.80427 7.5947C2.74029 8.73397 2.75061 9.86292 2.75061 11.0001C2.75061 12.1373 2.74029 13.2683 2.80427 14.4055C2.86825 15.7264 3.16958 16.8987 4.13546 17.8646C5.10341 18.8326 6.27362 19.1319 7.59448 19.1958C8.73373 19.2598 9.86266 19.2495 10.9998 19.2495C12.1391 19.2495 13.268 19.2598 14.4052 19.1958C15.7261 19.1319 16.8983 18.8305 17.8642 17.8646C18.8322 16.8967 19.1314 15.7264 19.1954 14.4055C19.2615 13.2683 19.2491 12.1394 19.2491 11.0001ZM17.4329 15.8668C17.2822 16.2424 17.1006 16.5231 16.8096 16.812C16.5186 17.1031 16.24 17.2847 15.8644 17.4353C14.7788 17.8667 12.201 17.7697 10.9978 17.7697C9.79455 17.7697 7.21473 17.8667 6.12915 17.4374C5.75352 17.2867 5.47284 17.1051 5.1839 16.8141C4.8929 16.5231 4.71128 16.2445 4.56062 15.8688C4.13133 14.7812 4.22833 12.2034 4.22833 11.0001C4.22833 9.79687 4.13133 7.217 4.56062 6.1314C4.71128 5.75577 4.8929 5.47508 5.1839 5.18613C5.4749 4.89719 5.75352 4.7135 6.12915 4.56284C7.21473 4.13355 9.79455 4.23055 10.9978 4.23055C12.201 4.23055 14.7808 4.13355 15.8664 4.56284C16.242 4.7135 16.5227 4.89512 16.8117 5.18613C17.1027 5.47714 17.2843 5.75577 17.435 6.1314C17.8642 7.217 17.7672 9.79687 17.7672 11.0001C17.7672 12.2034 17.8642 14.7812 17.4329 15.8668Z" fill="#1F2432"/>
</svg>
