<svg width="22" height="22" viewBox="0 0 22 22" fill="none" xmlns="http://www.w3.org/2000/svg">
<path d="M20.1241 11.0566C20.1241 6.01569 16.0367 1.93176 10.9993 1.93176C5.95838 1.93176 1.87445 6.01569 1.87445 11.0566C1.87445 15.6099 5.21014 19.3853 9.57352 20.0691V13.6948H7.25638V11.0572H9.57352V9.0457C9.57352 6.75936 10.9337 5.49672 13.0187 5.49672C14.0173 5.49672 15.0627 5.67465 15.0627 5.67465V7.91993H13.9101C12.7786 7.91993 12.425 8.62425 12.425 9.34568V11.0566H14.9555L14.5488 13.6942H12.425V20.0685C16.785 19.3847 20.1241 15.6093 20.1241 11.056V11.0566Z" fill="#1F2432"/>
</svg>
